# WaveFront *.obj file (generated by Autodesk ATF)

mtllib K.mtl

g K

v -2.125358 0.059248 -0.105873
v -2.554413 0.552879 -0.105873
v -2.554413 0.552879 0.094127
v -2.125358 0.059248 0.094127
v -2.125358 0.029120 -0.105873
v -2.125358 0.029120 0.094127
v -2.355606 0.029120 -0.105873
v -2.355606 0.029120 0.094127
v -2.745467 0.519101 -0.105873
v -2.745467 0.519101 0.094127
v -2.745467 0.029120 -0.105873
v -2.745467 0.029120 0.094127
v -2.946732 0.029120 -0.105873
v -2.946732 0.029120 0.094127
v -2.946732 1.029120 -0.105873
v -2.946732 1.029120 0.094127
v -2.745467 1.029120 -0.105873
v -2.745467 1.029120 0.094127
v -2.745467 0.573609 -0.105873
v -2.745467 0.573609 0.094127
v -2.360067 1.029120 -0.105873
v -2.360067 1.029120 0.094127
v -2.144823 1.029120 -0.105873
v -2.144823 1.029120 0.094127
v -2.144823 0.998848 -0.105873
v -2.144823 0.998848 0.094127
vt -0.000000 0.000000 0.000000
vt 0.654033 0.000000 0.000000
vt -0.000000 0.200000 0.000000
vt 0.654033 0.200000 0.000000
vt 0.000000 0.000000 0.000000
vt 0.030129 0.000000 0.000000
vt 0.000000 0.200000 0.000000
vt 0.030129 0.200000 0.000000
vt 0.000000 0.000000 0.000000
vt 0.230248 0.000000 0.000000
vt 0.000000 0.200000 0.000000
vt 0.230248 0.200000 0.000000
vt 0.000000 0.000000 0.000000
vt 0.626158 0.000000 0.000000
vt 0.000000 0.200000 0.000000
vt 0.626158 0.200000 0.000000
vt 0.000000 0.000000 0.000000
vt 0.489981 0.000000 0.000000
vt 0.000000 0.200000 0.000000
vt 0.489981 0.200000 0.000000
vt 0.000000 0.000000 0.000000
vt 0.201264 0.000000 0.000000
vt 0.000000 0.200000 0.000000
vt 0.201264 0.200000 0.000000
vt -0.000000 0.000000 0.000000
vt 1.000000 0.000000 0.000000
vt -0.000000 0.200000 0.000000
vt 1.000000 0.200000 0.000000
vt -0.000000 0.000000 0.000000
vt 0.201264 0.000000 0.000000
vt -0.000000 0.200000 0.000000
vt 0.201264 0.200000 0.000000
vt 0.000000 0.000000 0.000000
vt 0.455510 0.000000 0.000000
vt 0.000000 0.200000 0.000000
vt 0.455510 0.200000 0.000000
vt -0.000000 0.000000 0.000000
vt 0.596677 0.000000 0.000000
vt -0.000000 0.200000 0.000000
vt 0.596677 0.200000 0.000000
vt -0.000000 0.000000 0.000000
vt 0.215243 0.000000 0.000000
vt -0.000000 0.200000 0.000000
vt 0.215243 0.200000 0.000000
vt 0.000000 0.000000 0.000000
vt 0.030272 0.000000 0.000000
vt 0.000000 0.200000 0.000000
vt 0.030272 0.200000 0.000000
vt 0.000000 0.000000 0.000000
vt 0.605518 0.000000 0.000000
vt 0.000000 0.200000 0.000000
vt 0.605518 0.200000 0.000000
vt -2.117939 0.470491 0.000000
vt -2.333182 0.500763 0.000000
vt -2.527529 0.024523 0.000000
vt -2.718583 0.045253 0.000000
vt -2.718583 -0.009256 0.000000
vt -2.919847 0.500763 0.000000
vt -2.919847 -0.499237 0.000000
vt -2.117939 0.500763 0.000000
vt -2.718583 0.500763 0.000000
vt -2.718583 -0.499237 0.000000
vt -2.328721 -0.499237 0.000000
vt -2.098473 -0.469108 0.000000
vt -2.098473 -0.499237 0.000000
vt 2.117939 0.500763 0.000000
vt 2.117939 0.470491 0.000000
vt 2.333182 0.500763 0.000000
vt 2.527529 0.024523 0.000000
vt 2.718583 0.045253 0.000000
vt 2.718583 -0.009256 0.000000
vt 2.919847 0.500763 0.000000
vt 2.919847 -0.499237 0.000000
vt 2.718583 -0.499237 0.000000
vt 2.328721 -0.499237 0.000000
vt 2.098473 -0.469108 0.000000
vt 2.098473 -0.499237 0.000000
vt 2.718583 0.500763 0.000000
vn 0.754748 0.656014 0.000000
vn 0.754748 0.656014 0.000000
vn 0.754748 0.656014 0.000000
vn 0.754748 0.656014 0.000000
vn 1.000000 0.000000 0.000000
vn 1.000000 0.000000 0.000000
vn 1.000000 0.000000 0.000000
vn 1.000000 0.000000 0.000000
vn 0.000000 -1.000000 0.000000
vn 0.000000 -1.000000 0.000000
vn 0.000000 -1.000000 0.000000
vn 0.000000 -1.000000 0.000000
vn -0.782520 -0.622625 0.000000
vn -0.782520 -0.622625 0.000000
vn -0.782520 -0.622625 0.000000
vn -0.782520 -0.622625 0.000000
vn 1.000000 0.000000 0.000000
vn 1.000000 0.000000 0.000000
vn 1.000000 0.000000 0.000000
vn 1.000000 0.000000 0.000000
vn 0.000000 -1.000000 0.000000
vn 0.000000 -1.000000 0.000000
vn 0.000000 -1.000000 0.000000
vn 0.000000 -1.000000 0.000000
vn -1.000000 0.000000 0.000000
vn -1.000000 0.000000 0.000000
vn -1.000000 0.000000 0.000000
vn -1.000000 0.000000 0.000000
vn 0.000000 1.000000 0.000000
vn 0.000000 1.000000 0.000000
vn 0.000000 1.000000 0.000000
vn 0.000000 1.000000 0.000000
vn 1.000000 0.000000 0.000000
vn 1.000000 0.000000 0.000000
vn 1.000000 0.000000 0.000000
vn 1.000000 0.000000 0.000000
vn -0.763412 0.645912 0.000000
vn -0.763412 0.645912 0.000000
vn -0.763412 0.645912 0.000000
vn -0.763412 0.645912 0.000000
vn 0.000000 1.000000 0.000000
vn 0.000000 1.000000 0.000000
vn 0.000000 1.000000 0.000000
vn 0.000000 1.000000 0.000000
vn 1.000000 0.000000 0.000000
vn 1.000000 0.000000 0.000000
vn 1.000000 0.000000 0.000000
vn 1.000000 0.000000 0.000000
vn 0.736508 -0.676429 0.000000
vn 0.736508 -0.676429 0.000000
vn 0.736508 -0.676429 0.000000
vn 0.736508 -0.676429 0.000000
vn 0.000000 0.000000 1.000000
vn 0.000000 0.000000 1.000000
vn 0.000000 0.000000 1.000000
vn 0.000000 0.000000 1.000000
vn 0.000000 0.000000 1.000000
vn 0.000000 0.000000 1.000000
vn 0.000000 0.000000 1.000000
vn 0.000000 0.000000 1.000000
vn 0.000000 0.000000 1.000000
vn 0.000000 0.000000 1.000000
vn 0.000000 0.000000 1.000000
vn 0.000000 0.000000 1.000000
vn 0.000000 0.000000 1.000000
vn -0.000000 -0.000000 -1.000000
vn -0.000000 -0.000000 -1.000000
vn -0.000000 -0.000000 -1.000000
vn -0.000000 -0.000000 -1.000000
vn -0.000000 -0.000000 -1.000000
vn -0.000000 -0.000000 -1.000000
vn -0.000000 -0.000000 -1.000000
vn -0.000000 -0.000000 -1.000000
vn -0.000000 -0.000000 -1.000000
vn -0.000000 -0.000000 -1.000000
vn -0.000000 -0.000000 -1.000000
vn -0.000000 -0.000000 -1.000000
vn -0.000000 -0.000000 -1.000000
usemtl Steel_-_Satin
f 1/1/1 2/2/2 4/3/3
f 4/3/3 2/2/2 3/4/4
f 5/5/5 1/6/6 6/7/7
f 6/7/7 1/6/6 4/8/8
f 7/9/9 5/10/10 8/11/11
f 8/11/11 5/10/10 6/12/12
f 9/13/13 7/14/14 10/15/15
f 10/15/15 7/14/14 8/16/16
f 11/17/17 9/18/18 12/19/19
f 12/19/19 9/18/18 10/20/20
f 13/21/21 11/22/22 14/23/23
f 14/23/23 11/22/22 12/24/24
f 15/25/25 13/26/26 16/27/27
f 16/27/27 13/26/26 14/28/28
f 17/29/29 15/30/30 18/31/31
f 18/31/31 15/30/30 16/32/32
f 19/33/33 17/34/34 20/35/35
f 20/35/35 17/34/34 18/36/36
f 21/37/37 19/38/38 22/39/39
f 22/39/39 19/38/38 20/40/40
f 23/41/41 21/42/42 24/43/43
f 24/43/43 21/42/42 22/44/44
f 25/45/45 23/46/46 26/47/47
f 26/47/47 23/46/46 24/48/48
f 2/49/49 25/50/50 3/51/51
f 3/51/51 25/50/50 26/52/52
f 26/53/53 22/54/54 3/55/55
f 3/55/55 22/54/54 20/56/56
f 3/55/55 20/56/56 10/57/57
f 10/57/57 20/56/56 16/58/58
f 10/57/57 16/58/58 14/59/59
f 26/53/53 24/60/60 22/54/54
f 20/56/56 18/61/61 16/58/58
f 14/59/59 12/62/62 10/57/57
f 10/57/57 8/63/63 3/55/55
f 3/55/55 8/63/63 4/64/64
f 4/64/64 8/63/63 6/65/65
f 23/66/66 25/67/67 21/68/68
f 21/68/68 25/67/67 2/69/69
f 21/68/68 2/69/69 19/70/70
f 19/70/70 2/69/69 9/71/71
f 19/70/70 9/71/71 15/72/72
f 15/72/72 9/71/71 13/73/73
f 13/73/73 9/71/71 11/74/74
f 9/71/71 2/69/69 7/75/75
f 7/75/75 2/69/69 1/76/76
f 7/75/75 1/76/76 5/77/77
f 15/72/72 17/78/78 19/70/70
# 26 vertices
# 78 texture params
# 78 normals
# 48 facets

# 1 groups
