# WaveFront *.obj file (generated by Autodesk ATF)

mtllib TerasDepan.mtl

g TerasDepan

v 2.031920 1.530482 18.770647
v 2.031920 -1.969518 18.770647
v -9.968080 -1.969518 18.770647
v -9.968080 1.530482 18.770647
v -9.968080 -1.969518 19.583735
v -9.968080 1.530482 19.583735
v -2.968080 -1.969518 -2.416265
v -2.968080 1.530482 -2.416265
v -9.968080 1.530482 -2.416265
v -9.968080 -1.969518 -2.416265
v -2.968080 1.530482 -3.073119
v -2.968080 -1.969518 -3.073119
v -9.968080 -1.969518 -3.073119
v -9.968080 1.530482 -3.073119
v 2.688774 -1.969518 2.583735
v 2.688774 1.530482 2.583735
v 2.688774 1.530482 19.583735
v 2.688774 -1.969518 19.583735
v 2.031920 1.530482 2.583735
v 2.031920 -1.969518 2.583735
v 2.672956 1.530482 2.160998
v 2.625592 1.530482 1.740625
v 2.546945 1.530482 1.324967
v 2.437456 1.530482 0.916348
v 2.297737 1.530482 0.517054
v 2.128569 1.530482 0.129318
v 1.930899 1.530482 -0.244692
v 1.705832 1.530482 -0.602884
v 1.454627 1.530482 -0.943256
v 1.178687 1.530482 -1.263903
v 0.879558 1.530482 -1.563032
v 0.558911 1.530482 -1.838972
v 0.218539 1.530482 -2.090177
v -0.139653 1.530482 -2.315244
v -0.513663 1.530482 -2.512914
v -0.901399 1.530482 -2.682082
v -1.300693 1.530482 -2.821801
v -1.709312 1.530482 -2.931290
v -2.124970 1.530482 -3.009937
v -2.545343 1.530482 -3.057301
v -2.575785 1.530482 -2.400852
v -2.185908 1.530482 -2.354707
v -1.800853 1.530482 -2.278114
v -1.422995 1.530482 -2.171547
v -1.054663 1.530482 -2.035663
v -0.698128 1.530482 -1.871298
v -0.355587 1.530482 -1.679466
v -0.029154 1.530482 -1.461350
v 0.279160 1.530482 -1.218295
v 0.567454 1.530482 -0.951799
v 0.833950 1.530482 -0.663505
v 1.077005 1.530482 -0.355191
v 1.295121 1.530482 -0.028758
v 1.486952 1.530482 0.313783
v 1.651318 1.530482 0.670318
v 1.787202 1.530482 1.038650
v 1.893769 1.530482 1.416508
v 1.970362 1.530482 1.801563
v 2.016507 1.530482 2.191440
v 2.672956 -1.969518 2.160998
v 2.625592 -1.969518 1.740625
v 2.546945 -1.969518 1.324967
v 2.437456 -1.969518 0.916348
v 2.297737 -1.969518 0.517054
v 2.128569 -1.969518 0.129318
v 1.930899 -1.969518 -0.244692
v 1.705832 -1.969518 -0.602884
v 1.454627 -1.969518 -0.943256
v 1.178687 -1.969518 -1.263903
v 0.879558 -1.969518 -1.563032
v 0.558911 -1.969518 -1.838972
v 0.218539 -1.969518 -2.090177
v -0.139653 -1.969518 -2.315244
v -0.513663 -1.969518 -2.512914
v -0.901399 -1.969518 -2.682082
v -1.300693 -1.969518 -2.821801
v -1.709312 -1.969518 -2.931290
v -2.124970 -1.969518 -3.009937
v -2.545343 -1.969518 -3.057301
v -2.575785 -1.969518 -2.400852
v -2.185908 -1.969518 -2.354707
v -1.800853 -1.969518 -2.278114
v -1.422995 -1.969518 -2.171547
v -1.054663 -1.969518 -2.035663
v -0.698128 -1.969518 -1.871298
v -0.355587 -1.969518 -1.679466
v -0.029154 -1.969518 -1.461350
v 0.279160 -1.969518 -1.218295
v 0.567454 -1.969518 -0.951799
v 0.833950 -1.969518 -0.663505
v 1.077005 -1.969518 -0.355191
v 1.295121 -1.969518 -0.028758
v 1.486952 -1.969518 0.313783
v 1.651318 -1.969518 0.670318
v 1.787202 -1.969518 1.038650
v 1.893769 -1.969518 1.416508
v 1.970362 -1.969518 1.801563
v 2.016507 -1.969518 2.191440
vt 0.000000 -0.000000 0.000000
vt 3.500000 0.000000 0.000000
vt -0.000000 12.000000 0.000000
vt 3.500000 12.000000 0.000000
vt -0.406544 -1.750000 0.000000
vt 0.406544 -1.750000 0.000000
vt -0.406544 1.750000 0.000000
vt 0.406544 1.750000 0.000000
vt 0.000000 0.000000 0.000000
vt 3.500000 -0.000000 0.000000
vt 0.000000 7.000000 0.000000
vt 3.500000 7.000000 0.000000
vt 0.000000 0.000000 0.000000
vt 3.500000 -0.000000 0.000000
vt -0.000000 7.000000 0.000000
vt 3.500000 7.000000 0.000000
vt 0.656854 -0.500000 0.000000
vt -0.000000 -0.500000 0.000000
vt 0.656854 -4.000000 0.000000
vt -0.000000 -4.000000 0.000000
vt -0.000000 -0.000000 0.000000
vt 3.500000 0.000000 0.000000
vt -0.000000 17.000000 0.000000
vt 3.500000 17.000000 0.000000
vt 3.500000 16.186912 0.000000
vt -0.000000 16.186912 0.000000
vt 3.500000 0.000000 0.000000
vt 0.000000 0.000000 0.000000
vt 0.656854 -0.500000 0.000000
vt -12.000000 -0.500000 0.000000
vt 0.656854 -4.000000 0.000000
vt -12.000000 -4.000000 0.000000
vt -5.628744 0.563241 0.000000
vt -4.976981 0.479229 0.000000
vt -5.570914 0.982302 0.000000
vt -4.924039 0.868241 0.000000
vt -2.113211 16.809237 0.000000
vt -4.999238 0.087262 0.000000
vt -5.655096 0.141029 0.000000
vt -5.649822 -0.281971 0.000000
vt -4.990674 -0.305243 0.000000
vt -5.612953 -0.703394 0.000000
vt -4.951340 -0.695866 0.000000
vt -5.544693 -1.120884 0.000000
vt -4.881480 -1.082198 0.000000
vt -5.445425 -1.532105 0.000000
vt -4.781524 -1.461859 0.000000
vt -5.315704 -1.934758 0.000000
vt -4.652088 -1.832506 0.000000
vt -5.156256 -2.326591 0.000000
vt -4.967971 -2.705413 0.000000
vt -4.493970 -2.191856 0.000000
vt -4.751904 -3.069105 0.000000
vt -4.308146 -2.537692 0.000000
vt -4.509262 -3.415634 0.000000
vt -4.095760 -2.867882 0.000000
vt -4.241403 -3.743060 0.000000
vt -3.858123 -3.180391 0.000000
vt -3.949824 -4.049554 0.000000
vt -3.596699 -3.473292 0.000000
vt -3.636156 -4.333402 0.000000
vt -3.313100 -3.744779 0.000000
vt -3.302153 -4.593015 0.000000
vt -3.009075 -3.993178 0.000000
vt -2.949683 -4.826942 0.000000
vt -2.686498 -4.216957 0.000000
vt -2.580717 -5.033875 0.000000
vt -2.347358 -4.414738 0.000000
vt -2.197319 -5.212657 0.000000
vt -1.993745 -4.585300 0.000000
vt -1.801633 -5.362287 0.000000
vt -1.627841 -4.727593 0.000000
vt -1.395871 -5.481929 0.000000
vt -1.251900 -4.840738 0.000000
vt -0.982302 -5.570914 0.000000
vt -0.868241 -4.924039 0.000000
vt 5.911352 -6.786451 0.000000
vt 6.025413 -6.139576 0.000000
vt 9.704482 14.725459 0.000000
vt 9.845673 15.526195 0.000000
vt -2.618895 17.724034 0.000000
vt -0.000000 -17.771532 0.000000
vt -3.500000 -17.771532 0.000000
vt -0.000000 -18.194663 0.000000
vt -3.500000 -18.194663 0.000000
vt 0.000000 -18.617795 0.000000
vt -3.500000 -18.617795 0.000000
vt -0.000000 -19.040927 0.000000
vt -3.500000 -19.040927 0.000000
vt 0.000000 -19.464059 0.000000
vt -3.500000 -19.464059 0.000000
vt 0.000000 -19.887190 0.000000
vt -3.500000 -19.887190 0.000000
vt -0.000000 -20.310322 0.000000
vt -3.500000 -20.310322 0.000000
vt -0.000000 -20.733454 0.000000
vt -3.500000 -20.733454 0.000000
vt -0.000000 -21.156585 0.000000
vt -3.500000 -21.156585 0.000000
vt 0.000000 -21.579717 0.000000
vt -3.500000 -21.579717 0.000000
vt 0.000000 -22.002849 0.000000
vt -3.500000 -22.002849 0.000000
vt 0.000000 -22.425981 0.000000
vt -3.500000 -22.425981 0.000000
vt 0.000000 -22.849112 0.000000
vt -3.500000 -22.849112 0.000000
vt -0.000000 -23.272244 0.000000
vt -3.500000 -23.272244 0.000000
vt -0.000000 -23.695376 0.000000
vt -3.500000 -23.695376 0.000000
vt -0.000000 -24.118507 0.000000
vt -3.500000 -24.118507 0.000000
vt 0.000000 -24.541639 0.000000
vt -3.500000 -24.541639 0.000000
vt 0.000000 -24.964771 0.000000
vt -3.500000 -24.964771 0.000000
vt -0.000000 -25.387902 0.000000
vt -3.500000 -25.387902 0.000000
vt 0.000000 -25.811034 0.000000
vt -3.500000 -25.811034 0.000000
vt -0.000000 -26.234166 0.000000
vt -3.500000 -26.234166 0.000000
vt -0.000000 -26.657298 0.000000
vt -3.500000 -26.657298 0.000000
vt 2.750000 -15.707963 0.000000
vt -0.750000 -15.707963 0.000000
vt 2.750000 -16.100662 0.000000
vt -0.750000 -16.100662 0.000000
vt 2.750000 -16.493361 0.000000
vt -0.750000 -16.493361 0.000000
vt 2.750000 -16.886061 0.000000
vt -0.750000 -16.886061 0.000000
vt 2.750000 -17.278760 0.000000
vt -0.750000 -17.278760 0.000000
vt 2.750000 -17.671459 0.000000
vt -0.750000 -17.671459 0.000000
vt 2.750000 -18.064158 0.000000
vt -0.750000 -18.064158 0.000000
vt 2.750000 -18.456857 0.000000
vt -0.750000 -18.456857 0.000000
vt 2.750000 -18.849556 0.000000
vt -0.750000 -18.849556 0.000000
vt 2.750000 -19.242255 0.000000
vt -0.750000 -19.242255 0.000000
vt 2.750000 -19.634954 0.000000
vt -0.750000 -19.634954 0.000000
vt 2.750000 -20.027653 0.000000
vt -0.750000 -20.027653 0.000000
vt 2.750000 -20.420352 0.000000
vt -0.750000 -20.420352 0.000000
vt 2.750000 -20.813051 0.000000
vt -0.750000 -20.813051 0.000000
vt 2.750000 -21.205750 0.000000
vt -0.750000 -21.205750 0.000000
vt 2.750000 -21.598449 0.000000
vt -0.750000 -21.598449 0.000000
vt 2.750000 -21.991149 0.000000
vt -0.750000 -21.991149 0.000000
vt 2.750000 -22.383848 0.000000
vt -0.750000 -22.383848 0.000000
vt 2.750000 -22.776547 0.000000
vt -0.750000 -22.776547 0.000000
vt 2.750000 -23.169246 0.000000
vt -0.750000 -23.169246 0.000000
vt 2.750000 -23.561945 0.000000
vt -0.750000 -23.561945 0.000000
vt 0.392295 4.984587 0.000000
vt 0.422737 5.641037 0.000000
vt -0.000000 5.000000 0.000000
vt 0.000000 5.656854 0.000000
vt -16.186912 5.000000 0.000000
vt -17.000000 5.656854 0.000000
vt -17.000000 -7.000000 0.000000
vt 0.843110 5.593672 0.000000
vt 0.782172 4.938442 0.000000
vt 1.258768 5.515025 0.000000
vt 1.167227 4.861850 0.000000
vt 1.667387 5.405536 0.000000
vt 2.066681 5.265817 0.000000
vt 1.545085 4.755283 0.000000
vt 2.454417 5.096650 0.000000
vt 1.913417 4.619398 0.000000
vt 2.828427 4.898979 0.000000
vt 2.269952 4.455033 0.000000
vt 3.186619 4.673912 0.000000
vt 2.612493 4.263201 0.000000
vt 3.526991 4.422707 0.000000
vt 2.938926 4.045085 0.000000
vt 3.847638 4.146768 0.000000
vt 3.247240 3.802030 0.000000
vt 4.146768 3.847638 0.000000
vt 3.535534 3.535534 0.000000
vt 4.422707 3.526991 0.000000
vt 3.802030 3.247240 0.000000
vt 4.673912 3.186619 0.000000
vt 4.045085 2.938926 0.000000
vt 4.898979 2.828427 0.000000
vt 4.263201 2.612493 0.000000
vt 5.096650 2.454417 0.000000
vt 4.455033 2.269952 0.000000
vt 5.265817 2.066681 0.000000
vt 4.619398 1.913417 0.000000
vt 5.405536 1.667387 0.000000
vt 4.755283 1.545085 0.000000
vt 5.515025 1.258768 0.000000
vt 4.861850 1.167227 0.000000
vt 5.593672 0.843110 0.000000
vt 4.938442 0.782172 0.000000
vt 5.641037 0.422737 0.000000
vt 4.984587 0.392295 0.000000
vt 5.656854 -0.000000 0.000000
vt 5.000000 -0.000000 0.000000
vt 5.656854 -7.000000 0.000000
vt 5.000000 -7.000000 0.000000
vt -16.186912 -7.000000 0.000000
vn 0.000000 0.000000 -1.000000
vn 0.000000 0.000000 -1.000000
vn 0.000000 0.000000 -1.000000
vn 0.000000 0.000000 -1.000000
vn -1.000000 0.000000 0.000000
vn -1.000000 0.000000 0.000000
vn -1.000000 0.000000 0.000000
vn -1.000000 0.000000 0.000000
vn 0.000000 -0.000000 1.000000
vn 0.000000 -0.000000 1.000000
vn 0.000000 -0.000000 1.000000
vn 0.000000 -0.000000 1.000000
vn -0.000000 0.000000 -1.000000
vn -0.000000 0.000000 -1.000000
vn -0.000000 0.000000 -1.000000
vn -0.000000 0.000000 -1.000000
vn -1.000000 -0.000000 0.000000
vn -1.000000 -0.000000 0.000000
vn -1.000000 -0.000000 0.000000
vn -1.000000 -0.000000 0.000000
vn 1.000000 0.000000 -0.000000
vn 1.000000 0.000000 -0.000000
vn 1.000000 0.000000 -0.000000
vn 1.000000 0.000000 -0.000000
vn -1.000000 -0.000000 0.000000
vn -1.000000 -0.000000 0.000000
vn -1.000000 -0.000000 0.000000
vn -1.000000 -0.000000 0.000000
vn 0.000000 -0.000000 1.000000
vn 0.000000 -0.000000 1.000000
vn 0.000000 -0.000000 1.000000
vn 0.000000 -0.000000 1.000000
vn -0.000000 1.000000 0.000000
vn -0.000000 1.000000 0.000000
vn -0.000000 1.000000 0.000000
vn -0.000000 1.000000 0.000000
vn -0.000000 1.000000 0.000000
vn -0.000000 1.000000 0.000000
vn -0.000000 1.000000 0.000000
vn -0.000000 1.000000 0.000000
vn -0.000000 1.000000 0.000000
vn -0.000000 1.000000 0.000000
vn -0.000000 1.000000 0.000000
vn -0.000000 1.000000 0.000000
vn -0.000000 1.000000 0.000000
vn -0.000000 1.000000 0.000000
vn -0.000000 1.000000 0.000000
vn -0.000000 1.000000 0.000000
vn -0.000000 1.000000 0.000000
vn -0.000000 1.000000 0.000000
vn -0.000000 1.000000 0.000000
vn -0.000000 1.000000 0.000000
vn -0.000000 1.000000 0.000000
vn -0.000000 1.000000 0.000000
vn -0.000000 1.000000 0.000000
vn -0.000000 1.000000 0.000000
vn -0.000000 1.000000 0.000000
vn -0.000000 1.000000 0.000000
vn -0.000000 1.000000 0.000000
vn -0.000000 1.000000 0.000000
vn -0.000000 1.000000 0.000000
vn -0.000000 1.000000 0.000000
vn -0.000000 1.000000 0.000000
vn -0.000000 1.000000 0.000000
vn -0.000000 1.000000 0.000000
vn -0.000000 1.000000 0.000000
vn -0.000000 1.000000 0.000000
vn -0.000000 1.000000 0.000000
vn -0.000000 1.000000 0.000000
vn -0.000000 1.000000 0.000000
vn -0.000000 1.000000 0.000000
vn -0.000000 1.000000 0.000000
vn -0.000000 1.000000 0.000000
vn -0.000000 1.000000 0.000000
vn -0.000000 1.000000 0.000000
vn -0.000000 1.000000 0.000000
vn -0.000000 1.000000 0.000000
vn -0.000000 1.000000 0.000000
vn -0.000000 1.000000 0.000000
vn -0.000000 1.000000 0.000000
vn -0.000000 1.000000 0.000000
vn 0.074730 0.000000 -0.997204
vn 0.074730 0.000000 -0.997204
vn 0.149042 0.000000 -0.988831
vn 0.149042 0.000000 -0.988831
vn 0.222521 0.000000 -0.974928
vn 0.222521 0.000000 -0.974928
vn 0.294755 0.000000 -0.955573
vn 0.294755 0.000000 -0.955573
vn 0.365341 0.000000 -0.930874
vn 0.365341 0.000000 -0.930874
vn 0.433884 0.000000 -0.900969
vn 0.433884 0.000000 -0.900969
vn 0.500000 0.000000 -0.866025
vn 0.500000 0.000000 -0.866025
vn 0.563320 0.000000 -0.826239
vn 0.563320 0.000000 -0.826239
vn 0.623490 0.000000 -0.781831
vn 0.623490 0.000000 -0.781831
vn 0.680173 0.000000 -0.733052
vn 0.680173 0.000000 -0.733052
vn 0.733052 0.000000 -0.680173
vn 0.733052 0.000000 -0.680173
vn 0.781831 0.000000 -0.623490
vn 0.781831 0.000000 -0.623490
vn 0.826239 0.000000 -0.563320
vn 0.826239 0.000000 -0.563320
vn 0.866025 0.000000 -0.500000
vn 0.866025 0.000000 -0.500000
vn 0.900969 0.000000 -0.433884
vn 0.900969 0.000000 -0.433884
vn 0.930874 0.000000 -0.365341
vn 0.930874 0.000000 -0.365341
vn 0.955573 0.000000 -0.294755
vn 0.955573 0.000000 -0.294755
vn 0.974928 0.000000 -0.222521
vn 0.974928 0.000000 -0.222521
vn 0.988831 0.000000 -0.149042
vn 0.988831 0.000000 -0.149042
vn 0.997204 0.000000 -0.074730
vn 0.997204 0.000000 -0.074730
vn -0.996917 -0.000000 0.078459
vn -0.996917 -0.000000 0.078459
vn -0.987688 -0.000000 0.156434
vn -0.987688 -0.000000 0.156434
vn -0.972370 -0.000000 0.233445
vn -0.972370 -0.000000 0.233445
vn -0.951057 -0.000000 0.309017
vn -0.951057 -0.000000 0.309017
vn -0.923880 -0.000000 0.382683
vn -0.923880 -0.000000 0.382683
vn -0.891007 -0.000000 0.453990
vn -0.891007 -0.000000 0.453990
vn -0.852640 -0.000000 0.522499
vn -0.852640 -0.000000 0.522499
vn -0.809017 -0.000000 0.587785
vn -0.809017 -0.000000 0.587785
vn -0.760406 -0.000000 0.649448
vn -0.760406 -0.000000 0.649448
vn -0.707107 -0.000000 0.707107
vn -0.707107 -0.000000 0.707107
vn -0.649448 -0.000000 0.760406
vn -0.649448 -0.000000 0.760406
vn -0.587785 -0.000000 0.809017
vn -0.587785 -0.000000 0.809017
vn -0.522499 -0.000000 0.852640
vn -0.522499 -0.000000 0.852640
vn -0.453990 -0.000000 0.891007
vn -0.453990 -0.000000 0.891007
vn -0.382683 -0.000000 0.923880
vn -0.382683 -0.000000 0.923880
vn -0.309017 -0.000000 0.951057
vn -0.309017 -0.000000 0.951057
vn -0.233445 -0.000000 0.972370
vn -0.233445 -0.000000 0.972370
vn -0.156434 -0.000000 0.987688
vn -0.156434 -0.000000 0.987688
vn -0.078459 -0.000000 0.996917
vn -0.078459 -0.000000 0.996917
vn 0.000000 -1.000000 -0.000000
vn 0.000000 -1.000000 -0.000000
vn 0.000000 -1.000000 -0.000000
vn 0.000000 -1.000000 -0.000000
vn 0.000000 -1.000000 -0.000000
vn 0.000000 -1.000000 -0.000000
vn 0.000000 -1.000000 -0.000000
vn 0.000000 -1.000000 -0.000000
vn 0.000000 -1.000000 -0.000000
vn 0.000000 -1.000000 -0.000000
vn 0.000000 -1.000000 -0.000000
vn 0.000000 -1.000000 -0.000000
vn 0.000000 -1.000000 -0.000000
vn 0.000000 -1.000000 -0.000000
vn 0.000000 -1.000000 -0.000000
vn 0.000000 -1.000000 -0.000000
vn 0.000000 -1.000000 -0.000000
vn 0.000000 -1.000000 -0.000000
vn 0.000000 -1.000000 -0.000000
vn 0.000000 -1.000000 -0.000000
vn 0.000000 -1.000000 -0.000000
vn 0.000000 -1.000000 -0.000000
vn 0.000000 -1.000000 -0.000000
vn 0.000000 -1.000000 -0.000000
vn 0.000000 -1.000000 -0.000000
vn 0.000000 -1.000000 -0.000000
vn 0.000000 -1.000000 -0.000000
vn 0.000000 -1.000000 -0.000000
vn 0.000000 -1.000000 -0.000000
vn 0.000000 -1.000000 -0.000000
vn 0.000000 -1.000000 -0.000000
vn 0.000000 -1.000000 -0.000000
vn 0.000000 -1.000000 -0.000000
vn 0.000000 -1.000000 -0.000000
vn 0.000000 -1.000000 -0.000000
vn 0.000000 -1.000000 -0.000000
vn 0.000000 -1.000000 -0.000000
vn 0.000000 -1.000000 -0.000000
vn 0.000000 -1.000000 -0.000000
vn 0.000000 -1.000000 -0.000000
vn 0.000000 -1.000000 -0.000000
vn 0.000000 -1.000000 -0.000000
vn 0.000000 -1.000000 -0.000000
vn 0.000000 -1.000000 -0.000000
vn 0.000000 -1.000000 -0.000000
vn 0.000000 -1.000000 -0.000000
vn 0.000000 -1.000000 -0.000000
vn 0.000000 -1.000000 -0.000000
vn 0.000000 -1.000000 -0.000000
usemtl Steel_-_Satin
f 1/1/1 2/2/2 4/3/3
f 4/3/3 2/2/2 3/4/4
f 3/5/5 5/6/6 4/7/7
f 4/7/7 5/6/6 6/8/8
f 7/9/9 8/10/10 10/11/11
f 10/11/11 8/10/10 9/12/12
f 11/13/13 12/14/14 14/15/15
f 14/15/15 12/14/14 13/16/16
f 9/17/17 14/18/18 10/19/19
f 10/19/19 14/18/18 13/20/20
f 15/21/21 16/22/22 18/23/23
f 18/23/23 16/22/22 17/24/24
f 2/25/25 1/26/26 20/27/27
f 20/27/27 1/26/26 19/28/28
f 17/29/29 6/30/30 18/31/31
f 18/31/31 6/30/30 5/32/32
f 21/33/33 59/34/34 16/35/35
f 16/35/35 59/34/34 19/36/36
f 16/35/35 19/36/36 1/37/37
f 59/34/34 21/33/33 58/38/38
f 58/38/38 21/33/33 22/39/39
f 58/38/38 22/39/39 23/40/40
f 58/38/38 23/40/40 57/41/41
f 57/41/41 23/40/40 24/42/42
f 57/41/41 24/42/42 56/43/43
f 56/43/43 24/42/42 25/44/44
f 56/43/43 25/44/44 55/45/45
f 55/45/45 25/44/44 26/46/46
f 55/45/45 26/46/46 54/47/47
f 54/47/47 26/46/46 27/48/48
f 54/47/47 27/48/48 53/49/49
f 53/49/49 27/48/48 28/50/50
f 53/49/49 28/50/50 29/51/51
f 53/49/49 29/51/51 52/52/52
f 52/52/52 29/51/51 30/53/53
f 52/52/52 30/53/53 51/54/54
f 51/54/54 30/53/53 31/55/55
f 51/54/54 31/55/55 50/56/56
f 50/56/56 31/55/55 32/57/57
f 50/56/56 32/57/57 49/58/58
f 49/58/58 32/57/57 33/59/59
f 49/58/58 33/59/59 48/60/60
f 48/60/60 33/59/59 34/61/61
f 48/60/60 34/61/61 47/62/62
f 47/62/62 34/61/61 35/63/63
f 47/62/62 35/63/63 46/64/64
f 46/64/64 35/63/63 36/65/65
f 46/64/64 36/65/65 45/66/66
f 45/66/66 36/65/65 37/67/67
f 45/66/66 37/67/67 44/68/68
f 44/68/68 37/67/67 38/69/69
f 44/68/68 38/69/69 43/70/70
f 43/70/70 38/69/69 39/71/71
f 43/70/70 39/71/71 42/72/72
f 42/72/72 39/71/71 40/73/73
f 42/72/72 40/73/73 41/74/74
f 41/74/74 40/73/73 11/75/75
f 41/74/74 11/75/75 8/76/76
f 8/76/76 11/75/75 14/77/77
f 8/76/76 14/77/77 9/78/78
f 4/79/79 6/80/80 1/37/37
f 1/37/37 6/80/80 17/81/81
f 1/37/37 17/81/81 16/35/35
f 12/82/14 11/83/13 79/84/82
f 79/84/82 11/83/13 40/85/83
f 79/84/82 40/85/83 78/86/84
f 78/86/84 40/85/83 39/87/85
f 78/86/84 39/87/85 77/88/86
f 77/88/86 39/87/85 38/89/87
f 77/88/86 38/89/87 76/90/88
f 76/90/88 38/89/87 37/91/89
f 76/90/88 37/91/89 75/92/90
f 75/92/90 37/91/89 36/93/91
f 75/92/90 36/93/91 74/94/92
f 74/94/92 36/93/91 35/95/93
f 74/94/92 35/95/93 73/96/94
f 73/96/94 35/95/93 34/97/95
f 73/96/94 34/97/95 72/98/96
f 72/98/96 34/97/95 33/99/97
f 72/98/96 33/99/97 71/100/98
f 71/100/98 33/99/97 32/101/99
f 71/100/98 32/101/99 70/102/100
f 70/102/100 32/101/99 31/103/101
f 70/102/100 31/103/101 69/104/102
f 69/104/102 31/103/101 30/105/103
f 69/104/102 30/105/103 68/106/104
f 68/106/104 30/105/103 29/107/105
f 68/106/104 29/107/105 67/108/106
f 67/108/106 29/107/105 28/109/107
f 67/108/106 28/109/107 66/110/108
f 66/110/108 28/109/107 27/111/109
f 66/110/108 27/111/109 65/112/110
f 65/112/110 27/111/109 26/113/111
f 65/112/110 26/113/111 64/114/112
f 64/114/112 26/113/111 25/115/113
f 64/114/112 25/115/113 63/116/114
f 63/116/114 25/115/113 24/117/115
f 63/116/114 24/117/115 62/118/116
f 62/118/116 24/117/115 23/119/117
f 62/118/116 23/119/117 61/120/118
f 61/120/118 23/119/117 22/121/119
f 61/120/118 22/121/119 60/122/120
f 60/122/120 22/121/119 21/123/121
f 60/122/120 21/123/121 15/124/21
f 15/124/21 21/123/121 16/125/22
f 20/126/27 19/127/28 98/128/122
f 98/128/122 19/127/28 59/129/123
f 98/128/122 59/129/123 97/130/124
f 97/130/124 59/129/123 58/131/125
f 97/130/124 58/131/125 96/132/126
f 96/132/126 58/131/125 57/133/127
f 96/132/126 57/133/127 95/134/128
f 95/134/128 57/133/127 56/135/129
f 95/134/128 56/135/129 94/136/130
f 94/136/130 56/135/129 55/137/131
f 94/136/130 55/137/131 93/138/132
f 93/138/132 55/137/131 54/139/133
f 93/138/132 54/139/133 92/140/134
f 92/140/134 54/139/133 53/141/135
f 92/140/134 53/141/135 91/142/136
f 91/142/136 53/141/135 52/143/137
f 91/142/136 52/143/137 90/144/138
f 90/144/138 52/143/137 51/145/139
f 90/144/138 51/145/139 89/146/140
f 89/146/140 51/145/139 50/147/141
f 89/146/140 50/147/141 88/148/142
f 88/148/142 50/147/141 49/149/143
f 88/148/142 49/149/143 87/150/144
f 87/150/144 49/149/143 48/151/145
f 87/150/144 48/151/145 86/152/146
f 86/152/146 48/151/145 47/153/147
f 86/152/146 47/153/147 85/154/148
f 85/154/148 47/153/147 46/155/149
f 85/154/148 46/155/149 84/156/150
f 84/156/150 46/155/149 45/157/151
f 84/156/150 45/157/151 83/158/152
f 83/158/152 45/157/151 44/159/153
f 83/158/152 44/159/153 82/160/154
f 82/160/154 44/159/153 43/161/155
f 82/160/154 43/161/155 81/162/156
f 81/162/156 43/161/155 42/163/157
f 81/162/156 42/163/157 80/164/158
f 80/164/158 42/163/157 41/165/159
f 80/164/158 41/165/159 7/166/9
f 7/166/9 41/165/159 8/167/10
f 98/168/160 60/169/161 20/170/162
f 20/170/162 60/169/161 15/171/163
f 20/170/162 15/171/163 2/172/164
f 2/172/164 15/171/163 18/173/165
f 2/172/164 18/173/165 5/174/166
f 60/169/161 98/168/160 61/175/167
f 61/175/167 98/168/160 97/176/168
f 61/175/167 97/176/168 62/177/169
f 62/177/169 97/176/168 96/178/170
f 62/177/169 96/178/170 63/179/171
f 63/179/171 96/178/170 64/180/172
f 64/180/172 96/178/170 95/181/173
f 64/180/172 95/181/173 65/182/174
f 65/182/174 95/181/173 94/183/175
f 65/182/174 94/183/175 66/184/176
f 66/184/176 94/183/175 93/185/177
f 66/184/176 93/185/177 67/186/178
f 67/186/178 93/185/177 92/187/179
f 67/186/178 92/187/179 68/188/180
f 68/188/180 92/187/179 91/189/181
f 68/188/180 91/189/181 69/190/182
f 69/190/182 91/189/181 90/191/183
f 69/190/182 90/191/183 70/192/184
f 70/192/184 90/191/183 89/193/185
f 70/192/184 89/193/185 71/194/186
f 71/194/186 89/193/185 88/195/187
f 71/194/186 88/195/187 72/196/188
f 72/196/188 88/195/187 87/197/189
f 72/196/188 87/197/189 73/198/190
f 73/198/190 87/197/189 86/199/191
f 73/198/190 86/199/191 74/200/192
f 74/200/192 86/199/191 85/201/193
f 74/200/192 85/201/193 75/202/194
f 75/202/194 85/201/193 84/203/195
f 75/202/194 84/203/195 76/204/196
f 76/204/196 84/203/195 83/205/197
f 76/204/196 83/205/197 77/206/198
f 77/206/198 83/205/197 82/207/199
f 77/206/198 82/207/199 78/208/200
f 78/208/200 82/207/199 81/209/201
f 78/208/200 81/209/201 79/210/202
f 79/210/202 81/209/201 80/211/203
f 79/210/202 80/211/203 12/212/204
f 12/212/204 80/211/203 7/213/205
f 12/212/204 7/213/205 13/214/206
f 13/214/206 7/213/205 10/215/207
f 5/174/166 3/216/208 2/172/164
# 98 vertices
# 216 texture params
# 208 normals
# 192 facets

# 1 groups
